<svg width="84" height="324" viewBox="0 0 84 324" fill="none" xmlns="http://www.w3.org/2000/svg">
<path d="M45.5469 29.7734V31H39.5234V29.7734H45.5469ZM39.8281 19.625V31H38.3203V19.625H39.8281ZM44.75 24.5156V25.7422H39.5234V24.5156H44.75ZM45.4688 19.625V20.8594H39.5234V19.625H45.4688ZM44.3828 47.125C44.3828 46.8594 44.3411 46.625 44.2578 46.4219C44.1797 46.2135 44.0391 46.026 43.8359 45.8594C43.638 45.6927 43.362 45.5339 43.0078 45.3828C42.6589 45.2318 42.2161 45.0781 41.6797 44.9219C41.1172 44.7552 40.6094 44.5703 40.1562 44.3672C39.7031 44.1589 39.3151 43.9219 38.9922 43.6562C38.6693 43.3906 38.4219 43.0859 38.25 42.7422C38.0781 42.3984 37.9922 42.0052 37.9922 41.5625C37.9922 41.1198 38.0833 40.7109 38.2656 40.3359C38.4479 39.9609 38.7083 39.6354 39.0469 39.3594C39.3906 39.0781 39.7995 38.8594 40.2734 38.7031C40.7474 38.5469 41.276 38.4688 41.8594 38.4688C42.7135 38.4688 43.4375 38.6328 44.0312 38.9609C44.6302 39.2839 45.0859 39.7083 45.3984 40.2344C45.7109 40.7552 45.8672 41.3125 45.8672 41.9062H44.3672C44.3672 41.4792 44.276 41.1016 44.0938 40.7734C43.9115 40.4401 43.6354 40.1797 43.2656 39.9922C42.8958 39.7995 42.4271 39.7031 41.8594 39.7031C41.3229 39.7031 40.8802 39.7839 40.5312 39.9453C40.1823 40.1068 39.9219 40.3255 39.75 40.6016C39.5833 40.8776 39.5 41.1927 39.5 41.5469C39.5 41.7865 39.5495 42.0052 39.6484 42.2031C39.7526 42.3958 39.9115 42.5755 40.125 42.7422C40.3438 42.9089 40.6198 43.0625 40.9531 43.2031C41.2917 43.3438 41.6953 43.4792 42.1641 43.6094C42.8099 43.7917 43.3672 43.9948 43.8359 44.2188C44.3047 44.4427 44.6901 44.6953 44.9922 44.9766C45.2995 45.2526 45.526 45.5677 45.6719 45.9219C45.8229 46.2708 45.8984 46.6667 45.8984 47.1094C45.8984 47.5729 45.8047 47.9922 45.6172 48.3672C45.4297 48.7422 45.1615 49.0625 44.8125 49.3281C44.4635 49.5938 44.0443 49.7995 43.5547 49.9453C43.0703 50.0859 42.5286 50.1562 41.9297 50.1562C41.4036 50.1562 40.8854 50.0833 40.375 49.9375C39.8698 49.7917 39.4089 49.5729 38.9922 49.2812C38.5807 48.9896 38.25 48.6302 38 48.2031C37.7552 47.7708 37.6328 47.2708 37.6328 46.7031H39.1328C39.1328 47.0938 39.2083 47.4297 39.3594 47.7109C39.5104 47.987 39.7161 48.2161 39.9766 48.3984C40.2422 48.5807 40.5417 48.7161 40.875 48.8047C41.2135 48.888 41.5651 48.9297 41.9297 48.9297C42.4557 48.9297 42.901 48.8568 43.2656 48.7109C43.6302 48.5651 43.9062 48.3568 44.0938 48.0859C44.2865 47.8151 44.3828 47.4948 44.3828 47.125ZM42.5234 57.625V69H41.0391V57.625H42.5234ZM46.1797 57.625V58.8594H37.3906V57.625H46.1797ZM45.3984 105.812V107H37.9531V105.961L41.6797 101.812C42.138 101.302 42.4922 100.87 42.7422 100.516C42.9974 100.156 43.1745 99.8359 43.2734 99.5547C43.3776 99.2682 43.4297 98.9766 43.4297 98.6797C43.4297 98.3047 43.3516 97.9661 43.1953 97.6641C43.0443 97.3568 42.8203 97.112 42.5234 96.9297C42.2266 96.7474 41.8672 96.6562 41.4453 96.6562C40.9401 96.6562 40.5182 96.7552 40.1797 96.9531C39.8464 97.1458 39.5964 97.4167 39.4297 97.7656C39.263 98.1146 39.1797 98.5156 39.1797 98.9688H37.7344C37.7344 98.3281 37.875 97.7422 38.1562 97.2109C38.4375 96.6797 38.8542 96.2578 39.4062 95.9453C39.9583 95.6276 40.638 95.4688 41.4453 95.4688C42.1641 95.4688 42.7786 95.5964 43.2891 95.8516C43.7995 96.1016 44.1901 96.4557 44.4609 96.9141C44.737 97.3672 44.875 97.8984 44.875 98.5078C44.875 98.8411 44.8177 99.1797 44.7031 99.5234C44.5938 99.862 44.4401 100.201 44.2422 100.539C44.0495 100.878 43.8229 101.211 43.5625 101.539C43.3073 101.867 43.0339 102.19 42.7422 102.508L39.6953 105.812H45.3984ZM45.0859 119.406V121.141C45.0859 122.073 45.0026 122.859 44.8359 123.5C44.6693 124.141 44.4297 124.656 44.1172 125.047C43.8047 125.438 43.4271 125.721 42.9844 125.898C42.5469 126.07 42.0521 126.156 41.5 126.156C41.0625 126.156 40.6589 126.102 40.2891 125.992C39.9193 125.883 39.5859 125.708 39.2891 125.469C38.9974 125.224 38.7474 124.906 38.5391 124.516C38.3307 124.125 38.1719 123.651 38.0625 123.094C37.9531 122.536 37.8984 121.885 37.8984 121.141V119.406C37.8984 118.474 37.9818 117.693 38.1484 117.062C38.3203 116.432 38.5625 115.927 38.875 115.547C39.1875 115.161 39.5625 114.885 40 114.719C40.4427 114.552 40.9375 114.469 41.4844 114.469C41.9271 114.469 42.3333 114.523 42.7031 114.633C43.0781 114.737 43.4115 114.906 43.7031 115.141C43.9948 115.37 44.2422 115.677 44.4453 116.062C44.6536 116.443 44.8125 116.909 44.9219 117.461C45.0312 118.013 45.0859 118.661 45.0859 119.406ZM43.6328 121.375V119.164C43.6328 118.654 43.6016 118.206 43.5391 117.82C43.4818 117.43 43.3958 117.096 43.2812 116.82C43.1667 116.544 43.0208 116.32 42.8438 116.148C42.6719 115.977 42.4714 115.852 42.2422 115.773C42.0182 115.69 41.7656 115.648 41.4844 115.648C41.1406 115.648 40.8359 115.714 40.5703 115.844C40.3047 115.969 40.0807 116.169 39.8984 116.445C39.7214 116.721 39.5859 117.083 39.4922 117.531C39.3984 117.979 39.3516 118.523 39.3516 119.164V121.375C39.3516 121.885 39.3802 122.336 39.4375 122.727C39.5 123.117 39.5911 123.456 39.7109 123.742C39.8307 124.023 39.9766 124.255 40.1484 124.438C40.3203 124.62 40.5182 124.755 40.7422 124.844C40.9714 124.927 41.224 124.969 41.5 124.969C41.8542 124.969 42.1641 124.901 42.4297 124.766C42.6953 124.63 42.9167 124.419 43.0938 124.133C43.276 123.841 43.4115 123.469 43.5 123.016C43.5885 122.557 43.6328 122.01 43.6328 121.375ZM45.3984 143.812V145H37.9531V143.961L41.6797 139.812C42.138 139.302 42.4922 138.87 42.7422 138.516C42.9974 138.156 43.1745 137.836 43.2734 137.555C43.3776 137.268 43.4297 136.977 43.4297 136.68C43.4297 136.305 43.3516 135.966 43.1953 135.664C43.0443 135.357 42.8203 135.112 42.5234 134.93C42.2266 134.747 41.8672 134.656 41.4453 134.656C40.9401 134.656 40.5182 134.755 40.1797 134.953C39.8464 135.146 39.5964 135.417 39.4297 135.766C39.263 136.115 39.1797 136.516 39.1797 136.969H37.7344C37.7344 136.328 37.875 135.742 38.1562 135.211C38.4375 134.68 38.8542 134.258 39.4062 133.945C39.9583 133.628 40.638 133.469 41.4453 133.469C42.1641 133.469 42.7786 133.596 43.2891 133.852C43.7995 134.102 44.1901 134.456 44.4609 134.914C44.737 135.367 44.875 135.898 44.875 136.508C44.875 136.841 44.8177 137.18 44.7031 137.523C44.5938 137.862 44.4401 138.201 44.2422 138.539C44.0495 138.878 43.8229 139.211 43.5625 139.539C43.3073 139.867 43.0339 140.19 42.7422 140.508L39.6953 143.812H45.3984ZM45.0859 157.406V159.141C45.0859 160.073 45.0026 160.859 44.8359 161.5C44.6693 162.141 44.4297 162.656 44.1172 163.047C43.8047 163.438 43.4271 163.721 42.9844 163.898C42.5469 164.07 42.0521 164.156 41.5 164.156C41.0625 164.156 40.6589 164.102 40.2891 163.992C39.9193 163.883 39.5859 163.708 39.2891 163.469C38.9974 163.224 38.7474 162.906 38.5391 162.516C38.3307 162.125 38.1719 161.651 38.0625 161.094C37.9531 160.536 37.8984 159.885 37.8984 159.141V157.406C37.8984 156.474 37.9818 155.693 38.1484 155.062C38.3203 154.432 38.5625 153.927 38.875 153.547C39.1875 153.161 39.5625 152.885 40 152.719C40.4427 152.552 40.9375 152.469 41.4844 152.469C41.9271 152.469 42.3333 152.523 42.7031 152.633C43.0781 152.737 43.4115 152.906 43.7031 153.141C43.9948 153.37 44.2422 153.677 44.4453 154.062C44.6536 154.443 44.8125 154.909 44.9219 155.461C45.0312 156.013 45.0859 156.661 45.0859 157.406ZM43.6328 159.375V157.164C43.6328 156.654 43.6016 156.206 43.5391 155.82C43.4818 155.43 43.3958 155.096 43.2812 154.82C43.1667 154.544 43.0208 154.32 42.8438 154.148C42.6719 153.977 42.4714 153.852 42.2422 153.773C42.0182 153.69 41.7656 153.648 41.4844 153.648C41.1406 153.648 40.8359 153.714 40.5703 153.844C40.3047 153.969 40.0807 154.169 39.8984 154.445C39.7214 154.721 39.5859 155.083 39.4922 155.531C39.3984 155.979 39.3516 156.523 39.3516 157.164V159.375C39.3516 159.885 39.3802 160.336 39.4375 160.727C39.5 161.117 39.5911 161.456 39.7109 161.742C39.8307 162.023 39.9766 162.255 40.1484 162.438C40.3203 162.62 40.5182 162.755 40.7422 162.844C40.9714 162.927 41.224 162.969 41.5 162.969C41.8542 162.969 42.1641 162.901 42.4297 162.766C42.6953 162.63 42.9167 162.419 43.0938 162.133C43.276 161.841 43.4115 161.469 43.5 161.016C43.5885 160.557 43.6328 160.01 43.6328 159.375Z" fill="white"/>
<path d="M41.2929 308.707C41.6834 309.098 42.3166 309.098 42.7071 308.707L49.0711 302.343C49.4616 301.953 49.4616 301.319 49.0711 300.929C48.6805 300.538 48.0474 300.538 47.6568 300.929L42 306.586L36.3431 300.929C35.9526 300.538 35.3195 300.538 34.9289 300.929C34.5384 301.319 34.5384 301.953 34.9289 302.343L41.2929 308.707ZM41 200L41 308L43 308L43 200L41 200Z" fill="white"/>
</svg>
