<svg width="234" height="87" viewBox="0 0 234 87" fill="none" xmlns="http://www.w3.org/2000/svg">
<path d="M6.33203 7.23633H61.9616V14.2534H6.33203V7.23633Z" fill="white"/>
<path d="M13.3961 7.23633L13.3961 30.919H6.33203L6.33203 7.23633H13.3961Z" fill="white"/>
<path d="M30.1733 30.919H6.33203L6.33203 23.9019H30.1733V30.919Z" fill="white"/>
<path d="M63.7277 30.919L39.8864 30.919V23.9019H63.7277V30.919Z" fill="white"/>
<path d="M80.5048 62.9345L56.6636 62.9345V55.9174H80.5048V62.9345Z" fill="white"/>
<path d="M73.4408 79.6V55.9174H80.5048V79.6H73.4408Z" fill="white"/>
<path d="M46.9505 62.9345L23.1092 62.9345V55.9174H46.9505V62.9345Z" fill="white"/>
<path d="M30.1733 23.9019L30.1733 62.9345L23.1092 62.9345V23.9019H30.1733Z" fill="white"/>
<path d="M46.9505 23.9019V62.9345H39.8864V23.9019H46.9505Z" fill="white"/>
<path d="M63.7277 23.9019V62.9345L56.6636 62.9345L56.6636 23.9019H63.7277Z" fill="white"/>
<path d="M24.8752 72.583H80.5048V79.6H24.8752V72.583Z" fill="white"/>
<path d="M110.34 7.5826V25.418H106.678V7.5826H110.34ZM115.828 7.5826V10.4613H101.276V7.5826H115.828ZM121.83 7.5826V25.418H118.168V7.5826H121.83ZM126.951 7.5826H130.062L134.643 20.6774L139.225 7.5826H142.336L135.893 25.418H133.394L126.951 7.5826ZM125.273 7.5826H128.372L128.935 20.3466V25.418H125.273V7.5826ZM140.915 7.5826H144.027V25.418H140.352V20.3466L140.915 7.5826ZM151.156 7.5826V25.418H147.493V7.5826H151.156ZM163.43 15.8756L166.86 13.6584C167.366 13.3236 167.705 13.001 167.877 12.6907C168.048 12.3803 168.134 12.0333 168.134 11.6495C168.134 11.2656 167.991 10.9104 167.705 10.5837C167.419 10.2489 167.019 10.0815 166.505 10.0815C166.137 10.0815 165.827 10.1673 165.574 10.3388C165.32 10.5021 165.129 10.7226 164.998 11.0002C164.875 11.2779 164.814 11.5882 164.814 11.9312C164.814 12.2987 164.912 12.6743 165.108 13.0582C165.304 13.4338 165.57 13.834 165.904 14.2586C166.239 14.6751 166.611 15.1283 167.019 15.6183L175.435 25.418H171.429L164.569 17.4803C163.989 16.7616 163.483 16.1042 163.05 15.5081C162.617 14.9038 162.279 14.3158 162.034 13.7441C161.789 13.1725 161.666 12.5845 161.666 11.9802C161.666 11.0492 161.866 10.2367 162.266 9.54253C162.666 8.84022 163.23 8.29716 163.957 7.91334C164.684 7.52135 165.537 7.32536 166.517 7.32536C167.44 7.32536 168.24 7.51727 168.918 7.90109C169.596 8.27674 170.118 8.77489 170.486 9.39554C170.861 10.0162 171.049 10.6981 171.049 11.4412C171.049 11.9965 170.947 12.511 170.743 12.9847C170.539 13.4501 170.257 13.883 169.898 14.2831C169.538 14.6751 169.126 15.0385 168.661 15.3733L164.753 18.154C164.451 18.4316 164.222 18.7052 164.067 18.9747C163.912 19.2442 163.806 19.5014 163.748 19.7464C163.691 19.9832 163.663 20.2119 163.663 20.4324C163.663 20.906 163.765 21.3307 163.969 21.7064C164.173 22.082 164.459 22.376 164.826 22.5883C165.194 22.8006 165.623 22.9068 166.113 22.9068C166.782 22.9068 167.431 22.7598 168.06 22.4658C168.689 22.1718 169.253 21.7513 169.751 21.2041C170.249 20.6488 170.645 19.9914 170.939 19.2319C171.233 18.4725 171.38 17.6354 171.38 16.7208H174.369C174.369 17.6354 174.279 18.5051 174.099 19.3299C173.92 20.1466 173.63 20.906 173.23 21.6084C172.829 22.3025 172.299 22.9191 171.637 23.458C171.588 23.4989 171.519 23.5601 171.429 23.6418C171.347 23.7153 171.278 23.7724 171.221 23.8133C170.437 24.4421 169.62 24.9117 168.771 25.222C167.921 25.5241 166.974 25.6752 165.929 25.6752C164.737 25.6752 163.704 25.4588 162.83 25.026C161.964 24.5932 161.294 23.997 160.821 23.2375C160.355 22.4781 160.123 21.6084 160.123 20.6284C160.123 19.9097 160.261 19.285 160.539 18.7542C160.825 18.2152 161.217 17.7171 161.715 17.2598C162.213 16.8024 162.785 16.341 163.43 15.8756ZM110.34 36.5826V54.418H106.678V36.5826H110.34ZM115.828 36.5826V39.4613H101.276V36.5826H115.828ZM129.817 43.8466V46.713H120.507V43.8466H129.817ZM121.598 36.5826V54.418H117.923V36.5826H121.598ZM132.439 36.5826V54.418H128.776V36.5826H132.439ZM150.286 45.0838V45.929C150.286 47.2846 150.102 48.5014 149.735 49.5794C149.367 50.6574 148.849 51.5761 148.179 52.3355C147.51 53.0868 146.709 53.6626 145.778 54.0627C144.856 54.4629 143.831 54.663 142.704 54.663C141.585 54.663 140.56 54.4629 139.629 54.0627C138.706 53.6626 137.906 53.0868 137.228 52.3355C136.55 51.5761 136.024 50.6574 135.648 49.5794C135.28 48.5014 135.097 47.2846 135.097 45.929V45.0838C135.097 43.72 135.28 42.5032 135.648 41.4334C136.015 40.3555 136.534 39.4368 137.204 38.6773C137.881 37.9178 138.682 37.338 139.605 36.9378C140.536 36.5377 141.56 36.3376 142.679 36.3376C143.806 36.3376 144.831 36.5377 145.754 36.9378C146.685 37.338 147.485 37.9178 148.155 38.6773C148.833 39.4368 149.355 40.3555 149.723 41.4334C150.098 42.5032 150.286 43.72 150.286 45.0838ZM146.575 45.929V45.0593C146.575 44.112 146.489 43.279 146.317 42.5604C146.146 41.8417 145.893 41.2374 145.558 40.7475C145.223 40.2575 144.815 39.89 144.333 39.645C143.851 39.3918 143.3 39.2653 142.679 39.2653C142.059 39.2653 141.507 39.3918 141.026 39.645C140.552 39.89 140.148 40.2575 139.813 40.7475C139.486 41.2374 139.237 41.8417 139.066 42.5604C138.894 43.279 138.808 44.112 138.808 45.0593V45.929C138.808 46.8682 138.894 47.7011 139.066 48.4279C139.237 49.1466 139.49 49.755 139.825 50.2531C140.16 50.7431 140.568 51.1147 141.05 51.3678C141.532 51.621 142.083 51.7476 142.704 51.7476C143.324 51.7476 143.876 51.621 144.357 51.3678C144.839 51.1147 145.243 50.7431 145.57 50.2531C145.897 49.755 146.146 49.1466 146.317 48.4279C146.489 47.7011 146.575 46.8682 146.575 45.929ZM154.61 36.5826H157.722L162.303 49.6774L166.884 36.5826H169.996L163.552 54.418H161.054L154.61 36.5826ZM152.932 36.5826H156.031L156.595 49.3466V54.418H152.932V36.5826ZM168.575 36.5826H171.686V54.418H168.011V49.3466L168.575 36.5826ZM182.38 39.6327L177.529 54.418H173.622L180.249 36.5826H182.735L182.38 39.6327ZM186.41 54.418L181.547 39.6327L181.155 36.5826H183.666L190.33 54.418H186.41ZM186.19 47.7787V50.6574H176.77V47.7787H186.19ZM201.269 49.7509C201.269 49.4324 201.22 49.1466 201.122 48.8934C201.032 48.6321 200.861 48.3953 200.607 48.1829C200.354 47.9624 199.999 47.746 199.542 47.5337C199.084 47.3214 198.492 47.1009 197.765 46.8722C196.957 46.6109 196.189 46.3169 195.463 45.9903C194.744 45.6636 194.107 45.2839 193.552 44.8511C193.004 44.4101 192.572 43.8997 192.253 43.3199C191.943 42.7401 191.788 42.0663 191.788 41.2987C191.788 40.5555 191.951 39.8818 192.278 39.2775C192.604 38.665 193.062 38.1424 193.65 37.7096C194.238 37.2686 194.932 36.9297 195.732 36.6928C196.541 36.456 197.427 36.3376 198.39 36.3376C199.705 36.3376 200.852 36.5744 201.832 37.0481C202.812 37.5217 203.572 38.171 204.111 38.9958C204.658 39.8206 204.931 40.7638 204.931 41.8254H201.281C201.281 41.3028 201.171 40.8455 200.95 40.4535C200.738 40.0533 200.411 39.7389 199.97 39.5102C199.538 39.2816 198.99 39.1673 198.329 39.1673C197.692 39.1673 197.161 39.2653 196.737 39.4613C196.312 39.6491 195.993 39.9063 195.781 40.233C195.569 40.5515 195.463 40.9108 195.463 41.3109C195.463 41.6131 195.536 41.8867 195.683 42.1317C195.838 42.3766 196.067 42.6053 196.369 42.8176C196.671 43.03 197.043 43.23 197.484 43.4179C197.925 43.6057 198.435 43.7894 199.015 43.9691C199.987 44.2631 200.84 44.5938 201.575 44.9613C202.318 45.3288 202.939 45.7412 203.437 46.1985C203.935 46.6558 204.311 47.1744 204.564 47.7542C204.817 48.334 204.944 48.9914 204.944 49.7264C204.944 50.5022 204.793 51.1963 204.49 51.8088C204.188 52.4213 203.751 52.9399 203.18 53.3645C202.608 53.7892 201.926 54.1117 201.134 54.3322C200.342 54.5527 199.456 54.663 198.476 54.663C197.594 54.663 196.724 54.5486 195.867 54.32C195.009 54.0831 194.229 53.7279 193.527 53.2543C192.833 52.7806 192.278 52.1763 191.861 51.4413C191.445 50.7064 191.236 49.8366 191.236 48.8322H194.924C194.924 49.3875 195.009 49.857 195.181 50.2409C195.352 50.6247 195.593 50.935 195.904 51.1718C196.222 51.4087 196.598 51.5802 197.031 51.6863C197.471 51.7925 197.953 51.8456 198.476 51.8456C199.113 51.8456 199.636 51.7557 200.044 51.5761C200.46 51.3964 200.767 51.1473 200.963 50.8288C201.167 50.5104 201.269 50.151 201.269 49.7509Z" fill="white"/>
<path d="M104.615 76.418V67.6907H109.882V68.6282H105.672V71.5771H109.61V72.5146H105.672V75.4805H109.951V76.418H104.615ZM116.56 69.8725C116.509 69.4407 116.301 69.1055 115.938 68.8668C115.574 68.6282 115.128 68.5089 114.6 68.5089C114.213 68.5089 113.875 68.5714 113.586 68.6964C113.299 68.8214 113.074 68.9933 112.912 69.212C112.753 69.4308 112.674 69.6793 112.674 69.9577C112.674 70.1907 112.729 70.391 112.84 70.5586C112.953 70.7234 113.098 70.8612 113.275 70.9719C113.451 71.0799 113.635 71.1694 113.828 71.2404C114.022 71.3086 114.199 71.364 114.361 71.4066L115.248 71.6452C115.475 71.7049 115.728 71.7873 116.006 71.8924C116.287 71.9975 116.556 72.141 116.811 72.3228C117.07 72.5018 117.283 72.7319 117.451 73.0131C117.618 73.2944 117.702 73.6396 117.702 74.0487C117.702 74.5202 117.578 74.9464 117.331 75.3271C117.087 75.7077 116.729 76.0103 116.257 76.2347C115.789 76.4592 115.219 76.5714 114.549 76.5714C113.924 76.5714 113.382 76.4705 112.925 76.2688C112.471 76.0671 112.113 75.7859 111.851 75.4251C111.593 75.0643 111.446 74.6452 111.412 74.168H112.503C112.532 74.4975 112.642 74.7702 112.836 74.9862C113.032 75.1992 113.279 75.3583 113.577 75.4634C113.878 75.5657 114.202 75.6168 114.549 75.6168C114.952 75.6168 115.314 75.5515 115.635 75.4208C115.956 75.2873 116.211 75.1026 116.398 74.8668C116.586 74.6282 116.679 74.3498 116.679 74.0316C116.679 73.7418 116.598 73.506 116.436 73.3242C116.275 73.1424 116.061 72.9947 115.797 72.881C115.533 72.7674 115.248 72.668 114.941 72.5827L113.867 72.2759C113.185 72.0799 112.645 71.8001 112.248 71.4364C111.85 71.0728 111.651 70.5969 111.651 70.0089C111.651 69.5202 111.783 69.0941 112.047 68.7305C112.314 68.364 112.672 68.0799 113.121 67.8782C113.573 67.6737 114.077 67.5714 114.634 67.5714C115.196 67.5714 115.696 67.6722 116.134 67.8739C116.571 68.0728 116.918 68.3455 117.174 68.6921C117.432 69.0387 117.569 69.4322 117.583 69.8725H116.56ZM118.962 68.6282V67.6907H125.508V68.6282H122.763V76.418H121.707V68.6282H118.962ZM130.36 76.418V75.6509L133.241 72.4975C133.579 72.1282 133.858 71.8072 134.076 71.5344C134.295 71.2589 134.457 71.0004 134.562 70.7589C134.67 70.5146 134.724 70.2589 134.724 69.9918C134.724 69.685 134.65 69.4194 134.502 69.195C134.358 68.9705 134.159 68.7972 133.906 68.6751C133.653 68.5529 133.369 68.4918 133.054 68.4918C132.718 68.4918 132.426 68.5614 132.176 68.7006C131.929 68.837 131.737 69.0288 131.6 69.2759C131.467 69.5231 131.4 69.8129 131.4 70.1452H130.395C130.395 69.6339 130.512 69.185 130.748 68.7987C130.984 68.4123 131.305 68.1112 131.711 67.8952C132.12 67.6793 132.579 67.5714 133.088 67.5714C133.599 67.5714 134.052 67.6793 134.447 67.8952C134.842 68.1112 135.152 68.4023 135.376 68.7688C135.6 69.1353 135.713 69.543 135.713 69.9918C135.713 70.3129 135.654 70.6268 135.538 70.9336C135.424 71.2376 135.225 71.5771 134.941 71.9521C134.66 72.3242 134.27 72.7788 133.77 73.3157L131.809 75.4123V75.4805H135.866V76.418H130.36ZM140.473 76.5373C139.831 76.5373 139.284 76.3626 138.832 76.0131C138.38 75.6609 138.035 75.1509 137.797 74.4833C137.558 73.8129 137.439 73.0032 137.439 72.0543C137.439 71.1112 137.558 70.3058 137.797 69.6381C138.038 68.9677 138.385 68.4563 138.836 68.104C139.291 67.7489 139.836 67.5714 140.473 67.5714C141.109 67.5714 141.653 67.7489 142.105 68.104C142.559 68.4563 142.906 68.9677 143.145 69.6381C143.386 70.3058 143.507 71.1112 143.507 72.0543C143.507 73.0032 143.387 73.8129 143.149 74.4833C142.91 75.1509 142.565 75.6609 142.113 76.0131C141.662 76.3626 141.115 76.5373 140.473 76.5373ZM140.473 75.5998C141.109 75.5998 141.603 75.293 141.956 74.6793C142.308 74.0657 142.484 73.1907 142.484 72.0543C142.484 71.2987 142.403 70.6552 142.241 70.1239C142.082 69.5927 141.852 69.1879 141.551 68.9094C141.252 68.631 140.893 68.4918 140.473 68.4918C139.842 68.4918 139.349 68.8029 138.994 69.4251C138.639 70.0444 138.461 70.9208 138.461 72.0543C138.461 72.81 138.541 73.4521 138.7 73.9805C138.859 74.5089 139.088 74.9109 139.386 75.1864C139.687 75.462 140.049 75.5998 140.473 75.5998ZM145.126 76.418V75.6509L148.007 72.4975C148.345 72.1282 148.623 71.8072 148.842 71.5344C149.061 71.2589 149.223 71.0004 149.328 70.7589C149.436 70.5146 149.49 70.2589 149.49 69.9918C149.49 69.685 149.416 69.4194 149.268 69.195C149.123 68.9705 148.924 68.7972 148.672 68.6751C148.419 68.5529 148.135 68.4918 147.819 68.4918C147.484 68.4918 147.191 68.5614 146.941 68.7006C146.694 68.837 146.502 69.0288 146.366 69.2759C146.233 69.5231 146.166 69.8129 146.166 70.1452H145.16C145.16 69.6339 145.278 69.185 145.514 68.7987C145.75 68.4123 146.071 68.1112 146.477 67.8952C146.886 67.6793 147.345 67.5714 147.853 67.5714C148.365 67.5714 148.818 67.6793 149.213 67.8952C149.608 68.1112 149.917 68.4023 150.142 68.7688C150.366 69.1353 150.478 69.543 150.478 69.9918C150.478 70.3129 150.42 70.6268 150.304 70.9336C150.19 71.2376 149.991 71.5771 149.707 71.9521C149.426 72.3242 149.035 72.7788 148.535 73.3157L146.575 75.4123V75.4805H150.632V76.418H145.126ZM155.238 76.5373C154.596 76.5373 154.049 76.3626 153.598 76.0131C153.146 75.6609 152.801 75.1509 152.562 74.4833C152.324 73.8129 152.204 73.0032 152.204 72.0543C152.204 71.1112 152.324 70.3058 152.562 69.6381C152.804 68.9677 153.15 68.4563 153.602 68.104C154.056 67.7489 154.602 67.5714 155.238 67.5714C155.875 67.5714 156.419 67.7489 156.87 68.104C157.325 68.4563 157.672 68.9677 157.91 69.6381C158.152 70.3058 158.272 71.1112 158.272 72.0543C158.272 73.0032 158.153 73.8129 157.914 74.4833C157.676 75.1509 157.331 75.6609 156.879 76.0131C156.427 76.3626 155.88 76.5373 155.238 76.5373ZM155.238 75.5998C155.875 75.5998 156.369 75.293 156.721 74.6793C157.074 74.0657 157.25 73.1907 157.25 72.0543C157.25 71.2987 157.169 70.6552 157.007 70.1239C156.848 69.5927 156.618 69.1879 156.316 68.9094C156.018 68.631 155.659 68.4918 155.238 68.4918C154.608 68.4918 154.115 68.8029 153.76 69.4251C153.404 70.0444 153.227 70.9208 153.227 72.0543C153.227 72.81 153.306 73.4521 153.466 73.9805C153.625 74.5089 153.853 74.9109 154.152 75.1864C154.453 75.462 154.815 75.5998 155.238 75.5998Z" fill="white"/>
</svg>
