<svg width="287" height="117" viewBox="0 0 287 117" fill="none" xmlns="http://www.w3.org/2000/svg">
<path d="M17 18.5H78.5V26.2576H17V18.5Z" fill="white"/>
<path d="M24.8095 18.5L24.8095 44.6818H17L17 18.5H24.8095Z" fill="white"/>
<path d="M43.3571 44.6818H17L17 36.9242L43.3571 36.9242V44.6818Z" fill="white"/>
<path d="M80.4524 44.6818L54.0952 44.6818V36.9242L80.4524 36.9242V44.6818Z" fill="white"/>
<path d="M99 80.0758L72.6429 80.0758V72.3182H99V80.0758Z" fill="white"/>
<path d="M91.1905 98.5V72.3182H99V98.5H91.1905Z" fill="white"/>
<path d="M61.9048 80.0758L35.5476 80.0758V72.3182H61.9048V80.0758Z" fill="white"/>
<path d="M43.3571 36.9242L43.3571 80.0758L35.5476 80.0758L35.5476 36.9242H43.3571Z" fill="white"/>
<path d="M61.9048 36.9242V80.0758H54.0952V36.9242L61.9048 36.9242Z" fill="white"/>
<path d="M80.4524 36.9242V80.0758L72.6429 80.0758L72.6429 36.9242H80.4524Z" fill="white"/>
<path d="M37.5 90.7424H99V98.5H37.5V90.7424Z" fill="white"/>
<path d="M139.729 23.9062V49.5H134.473V23.9062H139.729ZM147.604 23.9062V28.0371H126.721V23.9062H147.604ZM156.217 23.9062V49.5H150.961V23.9062H156.217ZM163.564 23.9062H168.029L174.604 42.6973L181.178 23.9062H185.643L176.396 49.5H172.811L163.564 23.9062ZM161.156 23.9062H165.604L166.412 42.2227V49.5H161.156V23.9062ZM183.604 23.9062H188.068V49.5H182.795V42.2227L183.604 23.9062ZM198.299 23.9062V49.5H193.043V23.9062H198.299ZM215.912 35.8066L220.834 32.625C221.561 32.1445 222.047 31.6816 222.293 31.2363C222.539 30.791 222.662 30.293 222.662 29.7422C222.662 29.1914 222.457 28.6816 222.047 28.2129C221.637 27.7324 221.062 27.4922 220.324 27.4922C219.797 27.4922 219.352 27.6152 218.988 27.8613C218.625 28.0957 218.35 28.4121 218.162 28.8105C217.986 29.209 217.898 29.6543 217.898 30.1465C217.898 30.6738 218.039 31.2129 218.32 31.7637C218.602 32.3027 218.982 32.877 219.463 33.4863C219.943 34.084 220.477 34.7344 221.062 35.4375L233.139 49.5H227.391L217.547 38.1094C216.715 37.0781 215.988 36.1348 215.367 35.2793C214.746 34.4121 214.26 33.5684 213.908 32.748C213.557 31.9277 213.381 31.084 213.381 30.2168C213.381 28.8809 213.668 27.7148 214.242 26.7188C214.816 25.7109 215.625 24.9316 216.668 24.3809C217.711 23.8184 218.936 23.5371 220.342 23.5371C221.666 23.5371 222.814 23.8125 223.787 24.3633C224.76 24.9023 225.51 25.6172 226.037 26.5078C226.576 27.3984 226.846 28.377 226.846 29.4434C226.846 30.2402 226.699 30.9785 226.406 31.6582C226.113 32.3262 225.709 32.9473 225.193 33.5215C224.678 34.084 224.086 34.6055 223.418 35.0859L217.811 39.0762C217.377 39.4746 217.049 39.8672 216.826 40.2539C216.604 40.6406 216.451 41.0098 216.369 41.3613C216.287 41.7012 216.246 42.0293 216.246 42.3457C216.246 43.0254 216.393 43.6348 216.686 44.1738C216.979 44.7129 217.389 45.1348 217.916 45.4395C218.443 45.7441 219.059 45.8965 219.762 45.8965C220.723 45.8965 221.654 45.6855 222.557 45.2637C223.459 44.8418 224.268 44.2383 224.982 43.4531C225.697 42.6562 226.266 41.7129 226.688 40.623C227.109 39.5332 227.32 38.332 227.32 37.0195H231.609C231.609 38.332 231.48 39.5801 231.223 40.7637C230.965 41.9355 230.549 43.0254 229.975 44.0332C229.4 45.0293 228.639 45.9141 227.689 46.6875C227.619 46.7461 227.52 46.834 227.391 46.9512C227.273 47.0566 227.174 47.1387 227.092 47.1973C225.967 48.0996 224.795 48.7734 223.576 49.2188C222.357 49.6523 220.998 49.8691 219.498 49.8691C217.787 49.8691 216.305 49.5586 215.051 48.9375C213.809 48.3164 212.848 47.4609 212.168 46.3711C211.5 45.2812 211.166 44.0332 211.166 42.627C211.166 41.5957 211.365 40.6992 211.764 39.9375C212.174 39.1641 212.736 38.4492 213.451 37.793C214.166 37.1367 214.986 36.4746 215.912 35.8066ZM139.729 65.9062V91.5H134.473V65.9062H139.729ZM147.604 65.9062V70.0371H126.721V65.9062H147.604ZM167.678 76.3301V80.4434H154.318V76.3301H167.678ZM155.883 65.9062V91.5H150.609V65.9062H155.883ZM171.439 65.9062V91.5H166.184V65.9062H171.439ZM197.051 78.1055V79.3184C197.051 81.2637 196.787 83.0098 196.26 84.5566C195.732 86.1035 194.988 87.4219 194.027 88.5117C193.066 89.5898 191.918 90.416 190.582 90.9902C189.258 91.5645 187.787 91.8516 186.17 91.8516C184.564 91.8516 183.094 91.5645 181.758 90.9902C180.434 90.416 179.285 89.5898 178.312 88.5117C177.34 87.4219 176.584 86.1035 176.045 84.5566C175.518 83.0098 175.254 81.2637 175.254 79.3184V78.1055C175.254 76.1484 175.518 74.4023 176.045 72.8672C176.572 71.3203 177.316 70.002 178.277 68.9121C179.25 67.8223 180.398 66.9902 181.723 66.416C183.059 65.8418 184.529 65.5547 186.135 65.5547C187.752 65.5547 189.223 65.8418 190.547 66.416C191.883 66.9902 193.031 67.8223 193.992 68.9121C194.965 70.002 195.715 71.3203 196.242 72.8672C196.781 74.4023 197.051 76.1484 197.051 78.1055ZM191.725 79.3184V78.0703C191.725 76.7109 191.602 75.5156 191.355 74.4844C191.109 73.4531 190.746 72.5859 190.266 71.8828C189.785 71.1797 189.199 70.6523 188.508 70.3008C187.816 69.9375 187.025 69.7559 186.135 69.7559C185.244 69.7559 184.453 69.9375 183.762 70.3008C183.082 70.6523 182.502 71.1797 182.021 71.8828C181.553 72.5859 181.195 73.4531 180.949 74.4844C180.703 75.5156 180.58 76.7109 180.58 78.0703V79.3184C180.58 80.666 180.703 81.8613 180.949 82.9043C181.195 83.9355 181.559 84.8086 182.039 85.5234C182.52 86.2266 183.105 86.7598 183.797 87.123C184.488 87.4863 185.279 87.668 186.17 87.668C187.061 87.668 187.852 87.4863 188.543 87.123C189.234 86.7598 189.814 86.2266 190.283 85.5234C190.752 84.8086 191.109 83.9355 191.355 82.9043C191.602 81.8613 191.725 80.666 191.725 79.3184ZM203.256 65.9062H207.721L214.295 84.6973L220.869 65.9062H225.334L216.088 91.5H212.502L203.256 65.9062ZM200.848 65.9062H205.295L206.104 84.2227V91.5H200.848V65.9062ZM223.295 65.9062H227.76V91.5H222.486V84.2227L223.295 65.9062ZM243.105 70.2832L236.145 91.5H230.537L240.047 65.9062H243.615L243.105 70.2832ZM248.889 91.5L241.91 70.2832L241.348 65.9062H244.951L254.514 91.5H248.889ZM248.572 81.9727V86.1035H235.055V81.9727H248.572ZM270.211 84.8027C270.211 84.3457 270.141 83.9355 270 83.5723C269.871 83.1973 269.625 82.8574 269.262 82.5527C268.898 82.2363 268.389 81.9258 267.732 81.6211C267.076 81.3164 266.227 81 265.184 80.6719C264.023 80.2969 262.922 79.875 261.879 79.4062C260.848 78.9375 259.934 78.3926 259.137 77.7715C258.352 77.1387 257.73 76.4062 257.273 75.5742C256.828 74.7422 256.605 73.7754 256.605 72.6738C256.605 71.6074 256.84 70.6406 257.309 69.7734C257.777 68.8945 258.434 68.1445 259.277 67.5234C260.121 66.8906 261.117 66.4043 262.266 66.0645C263.426 65.7246 264.697 65.5547 266.08 65.5547C267.967 65.5547 269.613 65.8945 271.02 66.5742C272.426 67.2539 273.516 68.1855 274.289 69.3691C275.074 70.5527 275.467 71.9062 275.467 73.4297H270.229C270.229 72.6797 270.07 72.0234 269.754 71.4609C269.449 70.8867 268.98 70.4355 268.348 70.1074C267.727 69.7793 266.941 69.6152 265.992 69.6152C265.078 69.6152 264.316 69.7559 263.707 70.0371C263.098 70.3066 262.641 70.6758 262.336 71.1445C262.031 71.6016 261.879 72.1172 261.879 72.6914C261.879 73.125 261.984 73.5176 262.195 73.8691C262.418 74.2207 262.746 74.5488 263.18 74.8535C263.613 75.1582 264.146 75.4453 264.779 75.7148C265.412 75.9844 266.145 76.248 266.977 76.5059C268.371 76.9277 269.596 77.4023 270.65 77.9297C271.717 78.457 272.607 79.0488 273.322 79.7051C274.037 80.3613 274.576 81.1055 274.939 81.9375C275.303 82.7695 275.484 83.7129 275.484 84.7676C275.484 85.8809 275.268 86.877 274.834 87.7559C274.4 88.6348 273.773 89.3789 272.953 89.9883C272.133 90.5977 271.154 91.0605 270.018 91.377C268.881 91.6934 267.609 91.8516 266.203 91.8516C264.938 91.8516 263.689 91.6875 262.459 91.3594C261.229 91.0195 260.109 90.5098 259.102 89.8301C258.105 89.1504 257.309 88.2832 256.711 87.2285C256.113 86.1738 255.814 84.9258 255.814 83.4844H261.105C261.105 84.2812 261.229 84.9551 261.475 85.5059C261.721 86.0566 262.066 86.502 262.512 86.8418C262.969 87.1816 263.508 87.4277 264.129 87.5801C264.762 87.7324 265.453 87.8086 266.203 87.8086C267.117 87.8086 267.867 87.6797 268.453 87.4219C269.051 87.1641 269.49 86.8066 269.771 86.3496C270.064 85.8926 270.211 85.377 270.211 84.8027Z" fill="white"/>
</svg>
