<svg width="96" height="96" viewBox="0 0 96 96" fill="none" xmlns="http://www.w3.org/2000/svg">
<path d="M24 25H60V29.4606H24V25Z" fill="white"/>
<path d="M28.5714 25L28.5714 40.0545H24L24 25H28.5714Z" fill="white"/>
<path d="M39.4286 40.0545H24L24 35.5939L39.4286 35.5939V40.0545Z" fill="white"/>
<path d="M61.1429 40.0545L45.7143 40.0545V35.5939L61.1429 35.5939V40.0545Z" fill="white"/>
<path d="M72 60.4061H56.5714V55.9455H72V60.4061Z" fill="white"/>
<path d="M67.4286 71V55.9455H72V71H67.4286Z" fill="white"/>
<path d="M50.2857 60.4061H34.8571V55.9455H50.2857V60.4061Z" fill="white"/>
<path d="M39.4286 35.5939L39.4286 60.4061H34.8571L34.8571 35.5939H39.4286Z" fill="white"/>
<path d="M50.2857 35.5939V60.4061H45.7143V35.5939L50.2857 35.5939Z" fill="white"/>
<path d="M61.1429 35.5939V60.4061H56.5714L56.5714 35.5939H61.1429Z" fill="white"/>
<path d="M36 66.5394H72V71H36V66.5394Z" fill="white"/>
</svg>
